<svg width="89" height="35" viewBox="0 0 89 35" fill="none" xmlns="http://www.w3.org/2000/svg">
<path d="M10.4523 0C7.75365 0 5.44799 0.897514 3.56153 2.71894C1.70128 4.54036 0.758057 6.81054 0.758057 9.52947C0.758057 12.2484 1.70128 14.5186 3.56153 16.34C5.44799 18.135 7.75365 19.0325 10.4523 19.0325C13.3082 19.0325 15.9283 17.7919 17.7099 15.6801L15.5091 13.7531C14.2252 15.2841 12.5222 16.0496 10.4523 16.0496C8.61828 16.0496 7.07243 15.4425 5.841 14.2018C4.60956 12.9611 4.00695 11.4037 4.00695 9.52947C4.00695 7.65526 4.60956 6.09781 5.841 4.85713C7.07243 3.61645 8.61828 2.98291 10.4523 2.98291C12.4698 2.98291 14.1466 3.72204 15.4567 5.22669L17.6837 3.29968C15.7711 1.10869 13.3606 0 10.4523 0Z" fill="white"/>
<path d="M23.4718 18.7158L24.9653 15.0465H33.0875L34.581 18.7158H38.0395L30.415 0.31677H27.6378L20.0133 18.7158H23.4718ZM29.0264 4.83073L32.0657 12.3276H25.9871L29.0264 4.83073Z" fill="white"/>
<path d="M46.1738 18.7158V3.29968H51.1257V0.31677H37.9467V3.29968H42.8987V18.7158H46.1738Z" fill="white"/>
<path d="M62.7228 0C60.0241 0 57.7185 0.897514 55.832 2.71894C53.9717 4.54036 53.0285 6.81054 53.0285 9.52947C53.0285 12.2484 53.9717 14.5186 55.832 16.34C57.7185 18.135 60.0241 19.0325 62.7228 19.0325C65.5787 19.0325 68.1987 17.7919 69.9804 15.6801L67.7795 13.7531C66.4957 15.2841 64.7927 16.0496 62.7228 16.0496C60.8887 16.0496 59.3429 15.4425 58.1115 14.2018C56.88 12.9611 56.2774 11.4037 56.2774 9.52947C56.2774 7.65526 56.88 6.09781 58.1115 4.85713C59.3429 3.61645 60.8887 2.98291 62.7228 2.98291C64.7402 2.98291 66.4171 3.72204 67.7271 5.22669L69.9542 3.29968C68.0415 1.10869 65.6311 0 62.7228 0Z" fill="white"/>
<path d="M76.9737 18.7158V10.4798H85.751V18.7158H88.9999V0.31677H85.751V7.49687H76.9737V0.31677H73.6986V18.7158H76.9737Z" fill="white"/>
<path d="M0.758057 32.5063C1.33658 33.813 2.58567 34.6049 4.2818 34.6049C6.37237 34.6049 7.48998 33.5094 7.48998 31.886C7.48998 31.1996 7.29275 30.6453 6.91145 30.2361C6.53015 29.827 5.91218 29.4442 5.0444 29.0878L4.50532 28.8767L4.03198 28.6919C3.86105 28.5995 3.4929 28.4411 3.34827 28.3355C3.12475 28.1111 2.96697 27.9263 2.96697 27.5436C2.96697 26.976 3.4929 26.5669 4.21605 26.5669C4.95236 26.5669 5.49144 26.8441 5.84644 27.3852L7.01664 26.5801C6.38552 25.5902 5.43884 25.0886 4.18976 25.0886C3.38771 25.0886 2.71715 25.313 2.16492 25.775C1.62584 26.2369 1.34973 26.8309 1.34973 27.57C1.34973 28.3487 1.59955 28.9426 2.12548 29.3782C2.65141 29.8006 3.1379 30.0381 3.97939 30.3549C4.6631 30.6057 4.93921 30.7245 5.32051 30.9884C5.70181 31.2392 5.84644 31.5164 5.84644 31.9256C5.84644 32.5195 5.43884 33.1266 4.29494 33.1266C3.22993 33.1266 2.46733 32.6647 1.99399 31.7276L0.758057 32.5063Z" fill="white"/>
<path d="M23.8845 34.4465V26.7385H26.3696V25.247H19.756V26.7385H22.241V34.4465H23.8845Z" fill="white"/>
<path d="M39.3991 30.9225C39.3991 32.0971 39.741 33.0079 40.4378 33.6414C41.1347 34.2749 42.0288 34.5917 43.1201 34.5917C44.2114 34.5917 45.0923 34.2749 45.7892 33.6414C46.486 33.0079 46.8279 32.0971 46.8279 30.9225V25.247H45.1844V30.7509C45.1844 32.3347 44.3955 33.1002 43.1201 33.1002C41.8184 33.1002 41.0426 32.3347 41.0426 30.7509V25.247H39.3991V30.9225Z" fill="white"/>
<path d="M63.9076 34.4465C65.4197 34.4465 66.603 34.0242 67.4445 33.1926C68.286 32.3611 68.7067 31.2524 68.7067 29.8666C68.7067 28.4807 68.286 27.372 67.4313 26.5273C66.5899 25.6694 65.4065 25.247 63.8945 25.247H60.6205V34.4465H63.9076ZM62.2641 26.7385H63.7761C66.0771 26.7385 67.0632 27.9263 67.0632 29.8666C67.0632 31.754 66.0639 32.9551 63.7893 32.9551H62.2641V26.7385Z" fill="white"/>
<path d="M85.6996 34.4465V30.8829L88.9999 25.247H87.238L84.8976 29.299L82.5441 25.247H80.769L84.0693 30.8829V34.4465H85.6996Z" fill="white"/>
</svg>
