<svg width="517" height="77" viewBox="0 0 517 77" fill="none" xmlns="http://www.w3.org/2000/svg">
<path fill-rule="evenodd" clip-rule="evenodd" d="M39.7382 37.7883C39.7713 35.2635 39.828 33.176 39.9084 31.4242C41.3954 32.8521 42.4948 34.1973 42.2962 35.4077C42.152 36.2919 41.2938 37.0697 39.7382 37.7883ZM39.672 28.1901C39.0432 27.5778 38.3457 26.9205 37.594 26.2255L37.5869 19.6722C37.7311 19.6462 37.8327 19.5871 37.9202 19.5185L38.4214 19.7644L39.0763 20.8069L39.2796 20.7431L39.2394 20.0812L39.7571 19.9748V21.0292L40.1756 21.1261C40.4002 20.6722 41.0101 19.8282 41.5964 19.5681L41.9085 21.6273C40.7595 22.6155 40.0621 23.8921 39.672 28.1901ZM39.2583 45.675C38.951 45.5474 38.6602 45.4221 38.3812 45.2968C37.958 33.0649 37.0124 31.7457 36.1779 31.183L36.5798 30.2539L37.601 30.949L37.5987 29.3154C37.7878 29.4856 37.9769 29.6605 38.1637 29.826C38.6176 30.2303 39.0573 30.6298 39.4805 31.0223C39.315 34.3958 39.2512 39.0721 39.2583 45.675ZM38.9793 56.07C38.8469 56.07 38.6744 55.992 38.5869 55.7934L38.5845 55.732C38.5798 55.1457 38.5751 54.583 38.568 54.0298C39.029 54.1362 39.2938 54.2284 39.2867 54.8407V55.6445L39.3103 55.635C39.3103 55.687 39.3103 55.7367 39.3127 55.7887C39.2536 56.0464 39.0432 56.07 38.9793 56.07ZM38.4427 47.3394C38.7287 47.4576 39.0006 47.5781 39.2654 47.7034C39.2677 48.5167 39.2701 49.3512 39.2748 50.2188L39.2654 50.2236V51.8123H39.2843C39.2843 52.1314 39.2867 52.4506 39.289 52.7768C39.0668 52.6799 38.6483 52.4317 38.542 52.0936C38.516 50.3631 38.4829 48.7886 38.4427 47.3394ZM35.7594 43.396C35.6956 42.8452 36.3032 42.1336 37.75 41.0532C37.8185 42.24 37.88 43.5852 37.9344 45.0935C36.6743 44.5024 35.828 43.954 35.7594 43.396ZM39.7548 17.9014L39.7571 19.7289L38.6483 19.4357L38.1495 19.1804C38.2157 18.814 37.9438 18.3388 37.5821 17.8943V16.6154L39.7548 17.9014ZM41.1992 49.1716C41.1921 49.3512 40.9675 49.6987 39.7122 50.0912C39.7075 49.3465 39.7051 48.6183 39.7027 47.9162C40.5846 48.3583 41.2181 48.8027 41.1992 49.1716ZM36.2299 24.9725C32.0667 21.1994 31.8917 19.4807 32.1565 18.7903C32.4 18.1568 33.1305 17.9889 33.523 17.9889C33.6293 17.9889 33.705 18.0031 33.7499 18.0126C33.8847 18.0433 33.8894 18.0669 33.9319 18.2371C33.9981 18.4996 34.0951 18.9038 34.8941 19.1662C35.8776 19.4925 36.6152 19.6651 37.1448 19.6911L37.1519 25.8212C36.8422 25.5352 36.5585 25.2704 36.2299 24.9725ZM34.7357 18.2631C34.8019 18.1402 34.9934 18.1071 35.1589 18.1922C35.322 18.2773 35.3977 18.4428 35.3362 18.5799C35.2889 18.6627 35.2062 18.7052 35.1069 18.7052C35.0407 18.7052 34.9769 18.6863 34.9131 18.6556C34.8185 18.6059 34.7476 18.5256 34.7216 18.4381C34.7026 18.3766 34.7074 18.3152 34.7357 18.2631ZM35.4072 16.9605C35.4804 16.8707 35.6908 16.8754 35.8256 17.0031C35.9036 17.0693 35.9485 17.1638 35.9533 17.2513C35.9556 17.3175 35.9367 17.3766 35.8942 17.4239C35.8516 17.4688 35.7901 17.4948 35.7239 17.4948C35.6341 17.4948 35.5419 17.4523 35.4686 17.3837C35.393 17.3151 35.3457 17.2182 35.3433 17.1284C35.341 17.0622 35.367 17.0031 35.4072 16.9605ZM40.0857 28.5849C40.464 24.0765 41.1519 22.8282 42.2844 21.8826L42.3789 21.8022L41.9581 19.0315L41.7382 19.0693C41.1354 19.1686 40.5751 19.7502 40.1992 20.2632L40.1945 17.6485L37.14 15.8423L37.1424 17.4002C36.8162 17.0716 36.5112 16.8139 36.393 16.7265C36.0478 16.4712 35.7429 16.3553 35.4332 16.3553C35.2511 16.3553 35.0904 16.3955 34.9485 16.431C34.7074 16.4924 34.5419 16.5468 34.192 16.3955C32.653 16.0834 31.4662 16.4262 30.8066 17.3553C30.1896 18.2277 30.0879 19.5729 30.5465 20.8684C30.9201 21.9181 31.6222 22.989 32.1447 23.7006C32.4496 24.1191 35.1258 26.9394 35.7429 27.573C36.1897 28.0246 36.6696 28.4737 37.1542 28.9158L37.1566 30.1144L36.3859 29.5896L35.6223 31.3532L35.783 31.4549C36.4615 31.8757 37.133 32.9727 37.5916 38.6962C35.9343 39.3037 33.7097 41.2849 33.6506 43.3346C33.6246 44.2826 34.0738 45.6017 36.4072 46.5167C36.9084 46.7105 37.4568 46.9233 37.9982 47.1455C38.0266 48.1881 38.0526 49.3063 38.0739 50.4931C37.6554 50.6491 36.6909 51.1574 36.5206 51.9328C36.3859 52.5475 36.7618 53.148 37.6412 53.7106C37.7949 53.8076 37.9604 53.8667 38.1235 53.914C38.1282 54.2189 38.1306 54.5334 38.133 54.8407C37.6223 55.0818 37.4356 55.2024 37.1211 55.557C36.9627 55.7367 36.8162 55.9305 36.9036 56.1126C36.9225 56.1622 36.9911 56.2733 37.1731 56.2733C37.2961 56.2733 37.471 56.2166 37.7973 56.0842C37.984 56.0109 38.1022 55.9778 38.185 55.9589C38.3268 56.2923 38.6342 56.5145 38.9793 56.5145C39.3552 56.5145 39.6602 56.2544 39.7477 55.8289C39.7477 55.706 39.7453 55.5854 39.7453 55.4601C40.1614 55.252 40.4262 54.8832 40.4451 54.4222C40.4664 53.895 40.1874 53.382 39.7264 53.0416C39.724 52.5924 39.7217 52.1645 39.7193 51.7295C41.2702 51.4151 42.9203 50.4127 43.0692 49.0652C43.1591 48.2614 42.7264 47.0793 40.1567 46.0415C40.0006 45.9753 39.8517 45.9162 39.698 45.8571C39.6957 43.7459 39.7027 41.8381 39.7146 40.1028C42.4711 38.7222 44.3482 37.4385 44.5894 35.7127C44.8329 33.9183 43.3435 31.7977 40.0857 28.5849Z" fill="#FFFFFE"/>
<path fill-rule="evenodd" clip-rule="evenodd" d="M118.037 29.3322C115.07 30.2235 114.063 30.7199 113.145 31.1857C111.866 31.8311 111.202 33.1432 111.202 34.6822C111.202 35.8879 111.632 37.9068 114.526 37.9068C115.481 37.9068 116.845 37.7319 118.037 36.8785V29.3322ZM112.698 41.0464C106.663 41.0464 106.197 36.4624 106.197 35.0557C106.197 33.4032 106.642 30.4835 110.488 29.0674C114.455 27.6088 115.306 27.4409 118.037 26.5804V25.8759C118.037 24.552 118.037 24.2281 117.774 23.4101C117.247 21.8356 115.736 20.8474 113.689 20.8474C110.677 20.8474 109.441 23.1453 109.431 23.169L109.192 23.6181L108.074 22.9538L108.185 22.611C108.729 20.8781 110.916 17.9325 115.696 17.9325C118.8 17.9325 120.824 18.8143 122.077 20.7174C123.008 22.2281 123.084 24.3132 123.084 26.4953C123.084 28.4126 123.037 30.5474 122.997 32.2708C122.968 33.4529 122.945 34.4765 122.945 35.1006C122.945 36.6751 123.195 37.8927 124.505 37.8927C124.831 37.8927 125.053 37.8241 125.233 37.6728L125.592 37.3678L126.328 38.2024L126.082 38.5168C124.876 39.9707 123.729 40.9967 121.684 40.9967C119.914 40.9967 118.687 40.1575 118.271 38.7437C117.287 39.7698 115.5 41.0464 112.698 41.0464Z" fill="white"/>
<path fill-rule="evenodd" clip-rule="evenodd" d="M75.8237 40.9869C72.9372 40.9869 70.7362 40.6701 68.4784 39.9348L68.1522 39.8284V38.209C68.1522 36.0553 68.1073 35.209 68.06 34.5234L67.9962 33.4028L69.3106 33.4052L69.3366 33.8732C69.3933 34.878 69.729 35.8662 70.3437 36.5589C71.2894 37.6298 73.4714 38.2776 75.4975 38.2776C79.7434 38.2776 81.7175 36.67 81.7175 33.2208C81.7175 30.2656 79.89 29.0363 77.3699 27.3341L76.9656 27.0575L74.3012 25.2844C70.5967 22.8281 68.7148 20.8635 68.7148 16.9391C68.7148 15.0195 69.4383 8.75219 78.7718 8.75219C82.604 8.75219 85.5568 9.25575 85.6797 9.27466L86.0816 9.34558L86.0674 9.74039C86.0674 9.75221 86.0367 10.9697 86.0367 12.2889C86.0367 13.3291 86.0178 14.2346 86.0556 15.1684L86.0911 15.8658H84.961L84.9327 15.4308C84.8499 14.244 84.5024 13.3906 83.8523 12.7381C82.9539 11.8374 80.968 11.4165 78.864 11.4165C73.9206 11.4165 73.3438 13.9603 73.3438 15.8658C73.3438 18.49 74.689 19.3789 77.6275 21.3222L81.0011 23.5563C83.8759 25.4736 86.5828 27.2821 86.5828 32.0482C86.5828 40.1145 79.0602 40.9869 75.8237 40.9869Z" fill="white"/>
<path fill-rule="evenodd" clip-rule="evenodd" d="M97.9373 41.129C94.4928 41.129 92.585 39.8973 91.7386 37.1502C91.3864 36.0556 91.3864 33.9019 91.3864 32.6111C91.3864 29.0531 91.4195 26.1972 91.4573 22.8922L91.4762 21.3414H88.5353V20.4643L88.8213 20.3484C90.1925 19.781 90.7126 19.3957 91.3178 18.93C93.4574 17.2704 94.9444 14.4641 94.968 14.424L95.4692 13.5729H96.4385V18.5801H104.023V21.3414H96.4385V33.0319C96.4385 36.5213 97.0886 38.5166 100.398 38.5166C101.933 38.5166 103.115 37.9209 103.124 37.9114L103.583 37.6774L103.973 38.5828L103.781 38.798C103.701 38.8854 101.985 41.129 97.9373 41.129Z" fill="white"/>
<path fill-rule="evenodd" clip-rule="evenodd" d="M128.227 40.8501V39.791L128.657 39.7603C129.031 39.7272 129.974 39.5782 130.631 38.8359C131.319 38.0699 131.362 36.1692 131.362 32.3748V26.013C131.362 23.2753 131.319 22.1027 130.922 21.507C130.468 20.8521 129.461 20.7812 128.924 20.7434C128.856 20.741 128.797 20.7315 128.74 20.7292L128.317 20.6843V19.41L128.818 19.4502C128.905 19.462 129.016 19.462 129.161 19.462C129.849 19.462 131.47 19.3698 133.184 19.0365C134.494 18.8284 135.255 18.3769 135.532 18.2469L135.787 18.1287L136.225 18.3911V20.1594C137.35 19.3249 139.608 18.0175 142.679 18.0175C146.69 18.0175 149.312 19.8947 150.062 23.299C150.274 24.143 150.352 26.1903 150.352 27.2825V33.7791C150.352 37.4553 150.494 38.4884 151.182 39.1314C151.53 39.4506 152.263 39.713 152.906 39.7556L153.345 39.7863V40.8265L152.241 40.7674C150.643 40.687 149.267 40.6137 147.823 40.6137C146.177 40.6137 144.757 40.6137 142.771 40.7981L142.253 40.8501V39.8194L142.655 39.765C143.518 39.6303 144.118 39.3844 144.501 39.0038C145.222 38.2827 145.26 36.5711 145.315 35.0912C145.324 34.8453 145.333 34.5876 145.348 34.3205C145.388 33.4883 145.388 31.7389 145.388 30.4599C145.388 28.7932 145.388 27.0697 145.208 25.3699C144.875 22.4904 143.376 21.15 140.48 21.15C138.494 21.15 137.253 21.6063 136.312 22.0885V33.7791C136.312 37.4553 136.463 38.4884 137.151 39.1314C137.501 39.4506 138.227 39.713 138.872 39.7556L139.31 39.7863V40.8265L138.125 40.765C136.584 40.6847 135.246 40.6137 133.842 40.6137C132.234 40.6137 130.723 40.6137 128.73 40.7981L128.227 40.8501Z" fill="white"/>
<path fill-rule="evenodd" clip-rule="evenodd" d="M155.995 40.8501V39.7697L156.428 39.7366C156.806 39.7082 157.749 39.5616 158.404 38.8193C159.097 38.051 159.13 36.1691 159.13 32.3747V21.3414H156.229V20.0908L156.52 19.9679C157.78 19.4501 158.555 19.0364 159.13 18.5896C159.134 16.6179 159.194 14.0718 159.461 12.6864C160.342 8.09292 163.345 5.7619 168.397 5.7619C170.563 5.7619 172.631 6.48296 173.832 7.45697L174.002 7.59646L174.071 8.06928L171.86 11.1403L171.329 11.145L171.208 10.8684C170.364 8.97946 169.135 8.24186 167.458 8.24186C166.761 8.24186 165.806 8.44754 165.215 9.04093C164.25 10.0031 164.087 11.4358 164.087 14.2751V18.5801H169.047V21.3414H164.087V33.6868C164.087 36.6254 164.184 38.0581 164.567 38.6325C165.191 39.5711 167.085 39.642 167.643 39.642H168.113V40.8264L167.619 40.7981C165.168 40.6704 163.345 40.6137 162.028 40.6137C160.376 40.6137 158.496 40.6137 156.506 40.7981L155.995 40.8501Z" fill="white"/>
<path fill-rule="evenodd" clip-rule="evenodd" d="M181.88 20.5425C180.568 20.5425 179.506 20.8805 178.731 21.5519C176.939 23.0508 176.033 25.7813 176.033 29.6632C176.033 31.1644 176.31 38.6516 181.792 38.6516C183.097 38.6516 184.166 38.3064 184.951 37.6397C186.731 36.1409 187.637 33.4103 187.637 29.5261C187.637 28.0273 187.36 20.5425 181.88 20.5425ZM181.599 41.2237C174.807 41.2237 170.747 36.9896 170.747 29.902C170.747 24.3983 173.712 17.9703 182.069 17.9703C188.866 17.9703 192.925 22.2044 192.925 29.2897C192.925 34.7957 189.96 41.2237 181.599 41.2237Z" fill="white"/>
<path fill-rule="evenodd" clip-rule="evenodd" d="M195.071 40.8498V39.7221L195.504 39.6843C195.885 39.663 196.835 39.5141 197.485 38.767C198.178 37.9987 198.206 36.1688 198.206 32.3744V26.0126C198.206 23.275 198.168 22.1024 197.776 21.5066C197.32 20.8517 196.317 20.7808 195.778 20.743C195.712 20.7406 195.648 20.7312 195.601 20.7288L195.168 20.6839V19.3364L195.648 19.3458C195.731 19.3529 195.875 19.3553 196.012 19.3553C196.705 19.3553 198.327 19.2702 200.034 18.9345C201.116 18.7548 202.048 18.4782 202.421 18.2985L202.681 18.185L203.074 18.3907V20.3246C204.14 19.3174 205.83 18.2512 208.22 18.2512C209.778 18.2512 211.034 18.6673 211.946 19.49L212.1 19.6319V20.334L210.225 23.7691H209.325L209.187 23.5516C208.665 22.7336 207.62 21.7596 205.599 21.7596C204.674 21.7596 203.878 21.9913 203.171 22.4664V33.6865C203.171 36.6251 203.268 38.0128 203.651 38.5873C204.277 39.5188 206.161 39.5921 206.722 39.5921H207.187V40.8261L206.698 40.7978C204.251 40.6701 202.421 40.6134 201.107 40.6134C199.452 40.6134 197.577 40.6134 195.589 40.7978L195.071 40.8498Z" fill="white"/>
<path fill-rule="evenodd" clip-rule="evenodd" d="M224.933 20.6846C220.597 20.6846 218.477 23.6539 218.477 29.7604C218.477 32.2357 219.179 37.9899 225.642 37.9899H225.85C226.635 37.9899 228.101 37.8764 229.38 37.0845V22.174C229.014 21.8147 227.666 20.6846 224.933 20.6846ZM230.07 41.1578L229.477 40.9592V39.0845C228.373 39.9025 226.184 41.172 223.257 41.172C217.143 41.172 213.191 36.9331 213.191 30.368C213.191 28.1907 213.621 26.1197 214.408 24.375C216.271 20.3347 220.148 18.0179 225.03 18.0179C226.82 18.0179 228.423 18.2401 229.38 18.4458V13.7128C229.38 10.9374 229.342 9.45981 228.945 8.86169C228.494 8.21392 227.52 8.14063 226.992 8.10044C226.924 8.09808 226.862 8.09335 226.813 8.08626L226.392 8.04607L226.489 7.04605H226.959C227.066 7.04605 229.638 6.83328 231.73 6.42192C232.607 6.27771 233.475 6.08149 233.926 5.916L234.149 5.83326L234.532 6.06258L234.513 6.27771C234.366 8.11463 234.342 12.0367 234.342 14.9753V33.1269C234.342 35.8386 234.38 37.5171 234.773 38.0585C235.234 38.7204 236.203 38.8315 236.73 38.8741C236.799 38.8741 236.865 38.8788 236.915 38.8859L237.335 38.9025V40.0987H236.87C236.371 40.0987 234.425 40.2358 232.546 40.5597C231.465 40.7346 230.669 40.8907 230.276 41.0703L230.07 41.1578Z" fill="white"/>
<path fill-rule="evenodd" clip-rule="evenodd" d="M70.3485 50.5459H73.9774L77.325 59.6761L78.5449 63.1915H78.6584L79.8499 59.6761L83.136 50.5459H86.7649V69.09H83.6774V60.6123C83.6774 58.8817 83.9303 56.416 84.1006 54.7138H83.9894L82.4859 58.9385L79.2801 67.3594H77.7505L74.5448 58.9385L73.0696 54.7138H72.9585C73.1287 56.416 73.3817 58.8817 73.3817 60.6123V69.09H70.3485V50.5459Z" fill="white"/>
<path fill-rule="evenodd" clip-rule="evenodd" d="M98.5734 50.5459H109.746V53.3237H101.864V58.0614H108.526V60.8392H101.864V66.3121H110.03V69.09H98.5734V50.5459Z" fill="white"/>
<path fill-rule="evenodd" clip-rule="evenodd" d="M125.663 66.4232C129.406 66.4232 131.536 64.2979 131.536 59.7328C131.536 55.1961 129.406 53.2126 125.663 53.2126H124.219V66.4232H125.663ZM120.928 50.5459H125.893C131.564 50.5459 134.909 53.6098 134.909 59.7328C134.909 65.8842 131.564 69.09 126.061 69.09H120.928V50.5459Z" fill="white"/>
<path fill-rule="evenodd" clip-rule="evenodd" d="M145.751 69.09H149.042V50.5459H145.751V69.09Z" fill="white"/>
<path fill-rule="evenodd" clip-rule="evenodd" d="M168.447 50.207C170.686 50.207 172.556 51.3087 173.721 52.5593L171.877 54.6019C170.941 53.6633 169.894 53.0676 168.475 53.0676C165.414 53.0676 163.258 55.6208 163.258 59.7887C163.258 64.011 165.244 66.5643 168.362 66.5643C170.005 66.5643 171.197 65.8834 172.246 64.7226L174.09 66.7369C172.587 68.465 170.629 69.4272 168.305 69.4272C163.57 69.4272 159.884 66.0253 159.884 59.8738C159.884 53.8075 163.681 50.207 168.447 50.207Z" fill="white"/>
<path fill-rule="evenodd" clip-rule="evenodd" d="M184.277 69.09H187.568V50.5459H184.277V69.09Z" fill="white"/>
<path fill-rule="evenodd" clip-rule="evenodd" d="M199.372 50.5459H202.748L208.531 60.9787L210.432 64.922H210.545C210.403 63.0213 210.119 60.669 210.119 58.598V50.5459H213.266V69.09H209.892L204.108 58.6571L202.207 54.7138H202.096C202.237 56.6713 202.521 58.9101 202.521 60.9787V69.09H199.372V50.5459Z" fill="white"/>
<path fill-rule="evenodd" clip-rule="evenodd" d="M225.072 50.5459H236.245V53.3237H228.363V58.0614H235.025V60.8392H228.363V66.3121H236.529V69.09H225.072V50.5459Z" fill="white"/>
<path fill-rule="evenodd" clip-rule="evenodd" d="M44.6198 35.6777C44.3786 37.4035 42.5015 38.6872 39.745 40.0678C39.7308 41.8054 39.726 43.7109 39.7284 45.8197C39.8821 45.8812 40.031 45.945 40.1894 46.0065C42.7568 47.049 43.1895 48.2311 43.0996 49.0325C42.9507 50.3801 41.3005 51.3825 39.7497 51.6922C39.7544 52.1272 39.7568 52.5574 39.7591 53.0043C40.2178 53.3494 40.4967 53.8577 40.4755 54.3849C40.4565 54.8459 40.1918 55.2194 39.7757 55.4227C39.7757 55.5504 39.7757 55.6686 39.778 55.7986C39.6906 56.2194 39.3832 56.4771 39.0121 56.4771C38.6646 56.4771 38.3572 56.2596 38.2154 55.9239C38.1326 55.9405 38.0144 55.9736 37.8277 56.0516C37.499 56.1863 37.3265 56.236 37.2035 56.236C37.0215 56.236 36.9506 56.1249 36.934 56.0776C36.8489 55.8956 36.9931 55.7064 37.1515 55.522C37.4659 55.1698 37.6527 55.0492 38.1634 54.8081C38.161 54.5007 38.1586 54.1816 38.1539 53.8813C37.9908 53.8341 37.8277 53.7726 37.6716 53.6733C36.7922 53.1106 36.4163 52.5149 36.5534 51.8955C36.7212 51.1201 37.6858 50.6141 38.1043 50.4605C38.083 49.269 38.057 48.1555 38.0286 47.1129C37.4872 46.8907 36.9387 46.6755 36.4376 46.4793C34.1042 45.5715 33.6526 44.2499 33.681 43.2996C33.7425 41.2522 35.9671 39.2688 37.622 38.6612C37.1633 32.9377 36.4919 31.8431 35.8158 31.4223L35.6527 31.3206L36.4163 29.557L37.187 30.0795V28.8808C36.7 28.4364 36.2177 27.9896 35.7732 27.538C35.1562 26.9044 32.4777 24.0841 32.1774 23.6656C31.6526 22.954 30.9505 21.8854 30.5746 20.8334C30.1183 19.5379 30.2199 18.1927 30.837 17.318C31.4942 16.3912 32.6833 16.0484 34.2224 16.3605C34.5723 16.5118 34.7378 16.4598 34.9789 16.396C35.1231 16.3605 35.2815 16.3203 35.4635 16.3203C35.7732 16.3203 36.0782 16.4362 36.4234 16.6915C36.5416 16.779 36.8489 17.0366 37.1728 17.3653L37.1704 15.8073L40.2249 17.6135L40.2296 20.2282C40.6031 19.7152 41.1658 19.1336 41.7686 19.0343L41.9885 18.9965L42.4117 21.7696L42.3147 21.8476C41.1823 22.7933 40.4967 24.0415 40.1161 28.5522C43.3739 31.7627 44.8633 33.8857 44.6198 35.6777ZM50.6624 8.9632H26.9409V71.0211C28.6975 70.0471 30.3334 69.0211 31.8748 67.9549C60.4215 48.2547 52.9178 14.2328 50.6624 8.9632Z" fill="white"/>
<path fill-rule="evenodd" clip-rule="evenodd" d="M4.67791 26.252C4.44149 26.2472 4.23582 26.252 3.99231 25.9446C3.73226 25.6113 3.4793 24.8831 3.91902 24.6538C4.1909 24.4198 4.81975 24.7626 5.02779 25.1408C5.21929 25.4883 5.15073 25.694 5.0798 25.9399C5.30203 26.2874 5.55263 26.6326 5.77722 26.9423C5.62119 25.9423 5.90724 25.1148 6.1673 24.5261C7.05857 25.7697 6.89308 26.843 6.39661 27.609C6.76778 28.0676 7.07748 28.4127 7.44864 28.7863C7.34462 28.0865 7.42737 27.0274 7.68506 26.434C8.51959 27.5853 8.63306 28.765 8.25008 29.5404C8.60233 29.8359 8.93094 30.1173 9.2761 30.3371C9.08697 29.6776 9.00187 28.583 9.17445 27.9541C10.1177 28.9139 10.4085 29.9967 10.191 30.8171C10.5905 30.9991 10.9806 31.1575 11.3825 31.252C11.1934 30.862 11.0066 30.1929 11.0397 29.7674C11.749 30.2213 11.9263 30.7414 11.8979 31.2922C12.009 31.3064 12.3093 31.4435 12.418 31.4435L12.392 29.8572C11.6946 29.6776 10.6449 29.2756 10.3021 27.9305C10.9546 28.0841 11.7868 28.2402 12.392 28.7792V27.9376C10.983 27.8241 9.56216 26.8217 8.86238 24.8264C10.0846 25.0392 11.2643 25.6207 12.392 26.3583V25.6207C11.1603 25.5309 9.99716 24.389 9.48178 22.7673C10.5007 22.9587 11.4464 23.4174 12.392 24.0912V23.1644C11.2407 23.0391 10.0539 22.0557 9.48178 20.2566C10.5007 20.4481 11.4464 20.8878 12.392 21.5592V20.519C11.2005 20.4362 10.0752 19.7719 9.48178 17.9208C10.5007 18.1123 11.4464 18.6466 12.392 19.3204V18.162C11.4558 18.0556 10.5693 17.4787 10.1012 15.656C10.9168 15.8451 11.6379 16.195 12.392 16.8688V15.6678C11.6709 15.5378 11.0019 15.2517 10.6402 13.8404C11.1319 13.9538 11.7301 13.9798 12.3967 14.578L12.3825 13.8569C11.8388 13.0413 11.9617 12.6819 12.0256 12.0389C12.0847 11.4526 12.3045 11.02 12.9357 10.9892C13.5646 11.02 13.7821 11.4526 13.8483 12.0389C13.9145 12.6819 14.0327 13.0413 13.4866 13.8569L13.4984 14.5969C13.9925 14.1973 14.7112 13.8782 15.2857 13.7623C14.9689 15.1855 14.2691 15.5473 13.5055 15.6749L13.4795 16.8735C14.1013 16.3747 15.0374 15.7033 15.7514 15.5567C15.3448 17.3676 14.4724 18.0272 13.5055 18.162V19.3417C14.2786 18.8428 15.4937 17.9681 16.3897 17.8239C15.8791 19.6561 14.7419 20.3842 13.5102 20.4977L13.515 21.5828C14.2857 21.084 15.4937 20.3015 16.3897 20.162C15.898 21.9327 14.7017 23.0084 13.5173 23.1715V24.0912C14.2927 23.5947 15.4937 22.8122 16.3897 22.668C15.9216 24.5261 14.7396 25.5285 13.5055 25.6349V26.3867C14.4346 25.8359 15.9571 24.8808 17.0257 24.7224C16.4157 26.7153 14.9736 27.7981 13.5055 27.9352V28.7957C14.0043 28.3962 15.0493 27.9659 15.6237 27.8525C15.3188 29.2095 14.2242 29.6776 13.4984 29.8572L13.496 31.4648C13.6663 31.4601 13.8341 31.4294 14.0091 31.4104C13.9594 30.8525 14.2857 30.278 15.0114 29.817C15.0422 30.2449 14.7987 30.8691 14.6592 31.2899C15.0493 31.2 15.437 31.0913 15.8247 30.9282C15.6167 30.1149 15.8885 28.9967 16.8223 28.051C16.9973 28.6823 16.8318 29.7083 16.7491 30.3891C17.1604 30.1386 17.5765 29.8667 17.9784 29.5168C17.5269 28.7437 17.6096 27.5428 18.482 26.3394C18.7396 26.9305 18.7515 28.0723 18.7586 28.7603C19.1132 28.3844 19.4962 27.9588 19.8342 27.5002C19.2196 26.7508 19.1959 26.0274 19.9312 24.5663C20.1888 25.1574 20.4205 26.0439 20.43 26.7342C20.7491 26.3229 20.9737 25.9824 21.2456 25.4883C21.0848 25.1124 21.1581 24.8264 21.3544 24.5805C21.6262 24.2401 22.0329 23.9493 22.3969 24.1715C22.9028 24.4009 22.6475 24.9588 22.4702 25.3678C22.3449 25.6562 22.1298 25.8524 21.7492 25.8406C21.4891 26.3063 21.1227 26.8146 20.8035 27.2189C21.5388 27.4529 22.0636 27.6255 22.56 28.1338C21.4702 28.583 20.8177 28.4766 20.2787 28.025C19.9264 28.4908 19.4134 29.0014 19.0446 29.3868C19.7609 29.6066 20.2314 29.8076 20.8153 30.401C19.6285 30.8927 18.7515 30.739 18.2243 30.1787C17.8105 30.5334 17.4134 30.8998 16.9878 31.1504C17.69 31.5074 18.2006 31.888 18.6238 32.4719C17.2739 32.7816 16.3826 32.3963 15.9878 31.6398C15.5859 31.8005 15.2124 31.9353 14.8081 32.0157C15.1935 32.3443 15.4559 32.5972 15.6497 33.0322C14.723 33.0086 14.1958 32.7911 14.0587 32.2213C13.8719 32.2402 13.6852 32.3655 13.4984 32.3632V34.1741L12.3589 33.6658V32.3395C12.2431 32.3277 11.9736 32.2332 11.8624 32.2166C11.6993 32.7556 11.2927 32.9637 10.4038 32.9826C10.5953 32.5429 10.704 32.2308 11.1532 31.9991C10.7419 31.8927 10.3565 31.6941 9.95224 31.5074C9.59999 32.3514 8.79855 32.7012 7.37536 32.375C7.79144 31.7911 8.321 31.2639 9.0326 31.0204C8.66853 30.791 8.33282 30.5665 7.97111 30.2189C7.45337 30.8005 6.56683 30.9991 5.35404 30.4955C5.84814 29.9896 6.34224 29.5853 7.09639 29.4435C6.71813 29.0676 6.36825 28.609 6.00417 28.1503C5.46515 28.6279 4.64481 28.7816 3.53367 28.3135C4.0325 27.8075 4.60225 27.2709 5.31622 27.2803C5.09635 26.9659 4.9025 26.6113 4.67791 26.252ZM0.781848 35.5453H26.3095V8.9632H2.58803C1.3776 11.7859 -1.33167 22.85 0.781848 35.5453Z" fill="white"/>
<path fill-rule="evenodd" clip-rule="evenodd" d="M14.5009 55.0582H16.1439V50.8572H14.5009V55.0582Z" fill="white"/>
<path fill-rule="evenodd" clip-rule="evenodd" d="M17.3729 55.0109H21.574V53.3679H17.3729V55.0109Z" fill="white"/>
<path fill-rule="evenodd" clip-rule="evenodd" d="M19.9783 52.0915H21.6238V47.8928H19.9783V52.0915Z" fill="white"/>
<path fill-rule="evenodd" clip-rule="evenodd" d="M14.3183 46.4742H15.5925V45.1952H14.3183V46.4742Z" fill="white"/>
<path fill-rule="evenodd" clip-rule="evenodd" d="M14.4538 49.5812H18.6548V47.9358H14.4538V49.5812Z" fill="white"/>
<path fill-rule="evenodd" clip-rule="evenodd" d="M17.4207 52.1409H18.6996V50.8572H17.4207V52.1409Z" fill="white"/>
<path fill-rule="evenodd" clip-rule="evenodd" d="M19.9783 40.8147L19.983 46.4744H23.08V56.5219H13.0373V50.8575H9.9379V40.8147H19.9783ZM21.3755 67.9547C22.9169 69.021 24.5505 70.047 26.3094 71.021V36.1787H0.895172C2.83374 47.0347 8.36104 58.9782 21.3755 67.9547Z" fill="white"/>
<path fill-rule="evenodd" clip-rule="evenodd" d="M11.3944 49.579H13.0374V45.3779H11.3944V49.579Z" fill="white"/>
<path fill-rule="evenodd" clip-rule="evenodd" d="M17.009 46.2947H18.6545V42.0913H17.009V46.2947Z" fill="white"/>
<path fill-rule="evenodd" clip-rule="evenodd" d="M11.4415 43.7391H15.6425V42.0913H11.4415V43.7391Z" fill="white"/>
<path d="M378.556 6.95238C373.821 6.95238 369.776 8.52708 366.466 11.7228C363.203 14.9185 361.548 18.9016 361.548 23.672C361.548 28.4424 363.203 32.4254 366.466 35.6212C369.776 38.7705 373.821 40.3452 378.556 40.3452C383.567 40.3452 388.164 38.1685 391.29 34.4633L387.428 31.0823C385.176 33.7686 382.188 35.1117 378.556 35.1117C375.338 35.1117 372.626 34.0465 370.466 31.8697C368.305 29.6929 367.248 26.9603 367.248 23.672C367.248 20.3836 368.305 17.6511 370.466 15.4743C372.626 13.2975 375.338 12.1859 378.556 12.1859C382.096 12.1859 385.038 13.4827 387.337 16.1227L391.244 12.7417C387.888 8.8976 383.659 6.95238 378.556 6.95238Z" fill="white"/>
<path d="M401.399 39.7895L404.02 33.3517H418.27L420.89 39.7895H426.958L413.581 7.50816H408.708L395.331 39.7895H401.399ZM411.145 15.428L416.477 28.5813H405.812L411.145 15.428Z" fill="white"/>
<path d="M441.23 39.7895V12.7417H449.918V7.50816H426.796V12.7417H435.484V39.7895H441.23Z" fill="white"/>
<path d="M470.266 6.95238C465.531 6.95238 461.485 8.52708 458.176 11.7228C454.912 14.9185 453.257 18.9016 453.257 23.672C453.257 28.4424 454.912 32.4254 458.176 35.6212C461.485 38.7705 465.531 40.3452 470.266 40.3452C475.276 40.3452 479.873 38.1685 482.999 34.4633L479.138 31.0823C476.885 33.7686 473.897 35.1117 470.266 35.1117C467.048 35.1117 464.335 34.0465 462.175 31.8697C460.014 29.6929 458.957 26.9603 458.957 23.672C458.957 20.3836 460.014 17.6511 462.175 15.4743C464.335 13.2975 467.048 12.1859 470.266 12.1859C473.805 12.1859 476.747 13.4827 479.046 16.1227L482.953 12.7417C479.597 8.8976 475.368 6.95238 470.266 6.95238Z" fill="white"/>
<path d="M495.269 39.7895V25.3393H510.669V39.7895H516.369V7.50816H510.669V20.1057H495.269V7.50816H489.523V39.7895H495.269Z" fill="white"/>
<path d="M361.548 63.9847C362.563 66.2773 364.754 67.6667 367.73 67.6667C371.398 67.6667 373.359 65.7446 373.359 62.8963C373.359 61.6921 373.013 60.7195 372.344 60.0016C371.675 59.2837 370.591 58.6122 369.068 57.9869L368.122 57.6164L367.292 57.2922C366.992 57.1301 366.346 56.8522 366.092 56.667C365.7 56.2733 365.423 55.9491 365.423 55.2775C365.423 54.2818 366.346 53.5639 367.615 53.5639C368.907 53.5639 369.852 54.0502 370.475 54.9996L372.528 53.587C371.421 51.8502 369.76 50.9703 367.569 50.9703C366.161 50.9703 364.985 51.3639 364.016 52.1744C363.07 52.9849 362.586 54.027 362.586 55.3238C362.586 56.6901 363.024 57.7322 363.947 58.4964C364.87 59.2374 365.723 59.6543 367.199 60.21C368.399 60.65 368.883 60.8584 369.552 61.3216C370.221 61.7616 370.475 62.2479 370.475 62.9658C370.475 64.0078 369.76 65.0731 367.753 65.0731C365.885 65.0731 364.547 64.2626 363.716 62.6184L361.548 63.9847Z" fill="white"/>
<path d="M402.123 67.3888V53.8649H406.483V51.2481H394.88V53.8649H399.24V67.3888H402.123Z" fill="white"/>
<path d="M429.344 61.2058C429.344 63.2668 429.944 64.8647 431.166 65.9762C432.389 67.0878 433.958 67.6435 435.872 67.6435C437.787 67.6435 439.333 67.0878 440.555 65.9762C441.778 64.8647 442.378 63.2668 442.378 61.2058V51.2481H439.494V60.9048C439.494 63.6836 438.11 65.0268 435.872 65.0268C433.589 65.0268 432.227 63.6836 432.227 60.9048V51.2481H429.344V61.2058Z" fill="white"/>
<path d="M472.344 67.3888C474.997 67.3888 477.073 66.6478 478.55 65.1889C480.026 63.7299 480.764 61.7847 480.764 59.3532C480.764 56.9217 480.026 54.9765 478.527 53.4944C477.05 51.9892 474.974 51.2481 472.321 51.2481H466.577V67.3888H472.344ZM469.461 53.8649H472.114C476.151 53.8649 477.881 55.9491 477.881 59.3532C477.881 62.6647 476.128 64.772 472.137 64.772H469.461V53.8649Z" fill="white"/>
<path d="M510.579 67.3888V61.1363L516.369 51.2481H513.278L509.172 58.3574L505.042 51.2481H501.928L507.718 61.1363V67.3888H510.579Z" fill="white"/>
<mask id="mask0" mask-type="alpha" maskUnits="userSpaceOnUse" x="298" y="6" width="49" height="65">
<path fill-rule="evenodd" clip-rule="evenodd" d="M322.582 6.95238C335.63 6.95238 346.354 17.498 346.354 30.7248C345.997 43.7728 331.519 61.4681 322.582 70.0476C313.645 62.1831 299.167 43.2366 298.81 30.7248C298.81 17.498 309.355 6.95238 322.582 6.95238Z" fill="white"/>
</mask>
<g mask="url(#mask0)">
<mask id="mask1" mask-type="alpha" maskUnits="userSpaceOnUse" x="275" y="-16" width="94" height="93">
<rect x="275.72" y="-15.6459" width="92.3579" height="92.3579" fill="#C4C4C4"/>
</mask>
<g mask="url(#mask1)">
<rect x="257.652" y="-19.2192" width="97.3706" height="97.3706" fill="#113CBE"/>
<path d="M354.919 -19.2192C328.031 -19.2192 306.234 2.57793 306.234 29.4661C306.234 42.5168 311.369 54.3681 319.729 63.1098L388.656 -5.63476C379.905 -14.0475 368.016 -19.2192 354.919 -19.2192Z" fill="#126131"/>
<circle cx="281.009" cy="-2.50651" r="32.0762" fill="#B42813"/>
<circle cx="283.812" cy="55.3138" r="34.6714" fill="#113CBE"/>
<path d="M268.032 115.106L417.722 -34.5828H387.41L237.825 115.106H268.032Z" fill="#FC613B"/>
<path d="M228.276 15.037H434.747V29.5699H228.276V15.037Z" fill="#EA8A85"/>
<path d="M401.217 15.037H436.408L327.826 123.722H292.532L401.217 15.037Z" fill="#FF0000"/>
<path d="M207.41 111.473L370.905 -52.0222H388.033L224.538 111.473H207.41Z" fill="#E0B499"/>
<mask id="mask2" mask-type="alpha" maskUnits="userSpaceOnUse" x="306" y="-20" width="98" height="99">
<circle cx="354.919" cy="29.4661" r="48.6853" fill="#D2E0DD"/>
</mask>
<g mask="url(#mask2)">
<path d="M268.032 115.106L417.721 -34.5827H387.41L237.825 115.106H268.032Z" fill="#F8121F"/>
</g>
<path d="M260.767 161.093L424.262 -2.40267H431.01L267.514 161.093H260.767Z" fill="#0E3BC0"/>
<path d="M353.466 29.6737L367.999 15.1408L337.709 15.1408L323.176 29.6737L353.466 29.6737Z" fill="#A0E6D7"/>
<path d="M306.649 29.5699L321.182 15.037H303.743L289.21 29.5699H306.649Z" fill="#E1755A"/>
</g>
</g>
<path d="M275 1V76" stroke="white" stroke-width="2" stroke-linecap="round"/>
</svg>
